<svg xmlns="http://www.w3.org/2000/svg" width="346.823" height="218.075" viewBox="0 0 346.823 218.075"><defs><style>.a{fill:#f45b0f;}.b{fill:#ffd726;}.c{fill:#048ecb;}.d{fill:#161616;}</style></defs><g transform="translate(-258.883)"><path class="a" d="M0,0H109.025V109.037a109,109,0,0,1-41.722-8.3A109.034,109.034,0,0,1,31.933,77.1,109.045,109.045,0,0,1,8.3,41.726,109.046,109.046,0,0,1,0,0Z" transform="translate(367.239 109.037)"/><path class="b" d="M0,0A109.257,109.257,0,0,1,41.722,8.277a109.06,109.06,0,0,1,35.37,23.573,108.74,108.74,0,0,1,23.634,35.278,108.481,108.481,0,0,1,0,83.227,108.74,108.74,0,0,1-23.634,35.278,109.06,109.06,0,0,1-35.37,23.573A109.257,109.257,0,0,1,0,217.485Z" transform="translate(496.681 0.589)"/><path class="c" d="M109.025,54.519a54.516,54.516,0,0,1-54.513,54.519H0V0H54.513A54.516,54.516,0,0,1,109.025,54.519Z" transform="translate(258.883)"/><path class="d" d="M43.315,0A43.32,43.32,0,1,1,0,43.32,43.318,43.318,0,0,1,43.315,0Z" transform="translate(388.36)"/></g></svg>