<svg xmlns="http://www.w3.org/2000/svg" width="238.467" height="217.485" viewBox="0 0 238.467 217.485"><defs><style>.a{fill:#048ecb;}.b{fill:#e6e6e6;}.c{fill:#ffd726;}</style></defs><g transform="translate(-974.618 -574.981)"><path class="a" d="M109.025,217.485A108.743,108.743,0,1,1,109.025,0Z" transform="translate(1104.06 574.981)"/><path class="b" d="M109.025,109.037H0V0A109.011,109.011,0,0,1,41.722,8.3a109.029,109.029,0,0,1,35.37,23.636A109.045,109.045,0,0,1,100.726,67.31,109.037,109.037,0,0,1,109.025,109.037Z" transform="translate(974.618 578.698)"/><path class="c" d="M43.315,86.64A43.32,43.32,0,1,1,86.631,43.32,43.318,43.318,0,0,1,43.315,86.64Z" transform="translate(974.708 702.611)"/></g></svg>