<svg xmlns="http://www.w3.org/2000/svg" width="1628.91" height="1258" viewBox="0 0 1628.91 1258"><defs><style>.a{fill:#fff;}.b{fill:#94c0d4;}.c{fill:#f45b0f;}.d{fill:#161616;}.e{fill:#e6e6e6;}.f{fill:#ffd726;}.g{fill:#048ecb;}</style></defs><g transform="translate(38 118)"><rect class="a" width="1591" height="1140" transform="translate(-0.09 0)"/><g transform="translate(-38 -118)"><path class="b" d="M109.025,109.037a109.037,109.037,0,0,0-8.3-41.727A109.045,109.045,0,0,0,77.092,31.936,109.031,109.031,0,0,0,41.722,8.3,109.013,109.013,0,0,0,0,0V109.037Z" transform="translate(1469.527 109.037)"/><path class="b" d="M0,109.037a53.957,53.957,0,0,0,20.748-4.15,54.2,54.2,0,0,0,17.59-11.818A54.541,54.541,0,0,0,50.091,75.382a54.781,54.781,0,0,0,4.127-20.863,54.781,54.781,0,0,0-4.127-20.863A54.54,54.54,0,0,0,38.338,15.968,54.2,54.2,0,0,0,20.748,4.15,53.959,53.959,0,0,0,0,0V109.037Z" transform="translate(1232.016 1.179)"/><path class="c" d="M109.025,0a108.743,108.743,0,1,0,0,217.485V0Z" transform="translate(1339.286 0.589)"/><path class="d" d="M0,109.037A109.028,109.028,0,0,1,109.025,0V109.037Z" transform="translate(1339.286 349.781)"/><path class="b" d="M0,217.485a109.257,109.257,0,0,0,41.722-8.277,109.06,109.06,0,0,0,35.37-23.573,108.74,108.74,0,0,0,23.634-35.278,108.481,108.481,0,0,0,0-83.227A108.74,108.74,0,0,0,77.092,31.851,109.06,109.06,0,0,0,41.722,8.277,109.257,109.257,0,0,0,0,0V217.485Z" transform="translate(1469.527 347.534)"/><path class="e" d="M0,0A109.261,109.261,0,0,1,41.722,8.277a109.052,109.052,0,0,1,35.37,23.573,108.727,108.727,0,0,1,23.634,35.278,108.481,108.481,0,0,1,0,83.227,108.73,108.73,0,0,1-23.634,35.278,109.055,109.055,0,0,1-35.37,23.573A109.261,109.261,0,0,1,0,217.485V0Z" transform="translate(1231.744 225.786)"/><path class="b" d="M0,0A109.3,109.3,0,0,0,8.277,41.726,109.065,109.065,0,0,0,31.847,77.1a108.72,108.72,0,0,0,35.275,23.637,108.448,108.448,0,0,0,83.218,0A108.726,108.726,0,0,0,185.614,77.1a109.074,109.074,0,0,0,23.571-35.374A109.29,109.29,0,0,0,217.461,0H0Z" transform="translate(1360.502 226.689)"/><path class="c" d="M109.025,54.519a54.516,54.516,0,0,1-54.513,54.519H0V0H54.513a54.516,54.516,0,0,1,54.513,54.519Z" transform="translate(1231.744 453.379)"/><ellipse class="f" cx="43.315" cy="43.32" rx="43.315" ry="43.32" transform="translate(1469.527 1.179)"/><ellipse class="c" cx="43.315" cy="43.32" rx="43.315" ry="43.32" transform="translate(1231.857 131.434)"/><ellipse class="f" cx="43.315" cy="43.32" rx="43.315" ry="43.32" transform="translate(1360.502 475.099)"/><path class="d" d="M54.218,109.037A54.071,54.071,0,0,1,15.879,93.069,54.6,54.6,0,0,1,33.47,4.15,53.955,53.955,0,0,1,54.218,0Z" transform="translate(897.503 370.389)"/><path class="c" d="M54.218,109.037A54.074,54.074,0,0,1,15.879,93.07,54.6,54.6,0,0,1,33.47,4.15,53.972,53.972,0,0,1,54.218,0Z" transform="translate(659.653)"/><path class="c" d="M0,0H109.025V109.037a109,109,0,0,1-41.722-8.3A109.034,109.034,0,0,1,31.933,77.1,109.045,109.045,0,0,1,8.3,41.726,109.046,109.046,0,0,1,0,0Z" transform="translate(367.239 109.037)"/><path class="f" d="M0,0A109.257,109.257,0,0,1,41.722,8.277a109.06,109.06,0,0,1,35.37,23.573,108.74,108.74,0,0,1,23.634,35.278,108.481,108.481,0,0,1,0,83.227,108.74,108.74,0,0,1-23.634,35.278,109.06,109.06,0,0,1-35.37,23.573A109.257,109.257,0,0,1,0,217.485Z" transform="translate(496.681 0.589)"/><path class="g" d="M0,109.037A108.693,108.693,0,0,1,209.185,67.31a109.294,109.294,0,0,1,8.277,41.727Z" transform="translate(734.705 452.265)"/><path class="f" d="M217.461,0a109.29,109.29,0,0,1-8.277,41.726A109.074,109.074,0,0,1,185.614,77.1a108.726,108.726,0,0,1-35.274,23.637,108.447,108.447,0,0,1-83.218,0A108.726,108.726,0,0,1,31.847,77.1,109.074,109.074,0,0,1,8.277,41.726,109.29,109.29,0,0,1,0,0Z" transform="translate(971.801 250.639)"/><path class="c" d="M0,0A109.269,109.269,0,0,1,41.722,8.277,109.051,109.051,0,0,1,77.092,31.85a108.734,108.734,0,0,1,23.634,35.279,108.483,108.483,0,0,1,0,83.228,108.732,108.732,0,0,1-23.634,35.279,109.049,109.049,0,0,1-35.37,23.573A109.268,109.268,0,0,1,0,217.485Z" transform="translate(972.276 347.534)"/><path class="g" d="M0,109.037A108.693,108.693,0,0,1,209.185,67.311a109.29,109.29,0,0,1,8.277,41.726Z" transform="translate(864.083 130.255)"/><path class="f" d="M217.461,0a109.29,109.29,0,0,1-8.277,41.726A109.074,109.074,0,0,1,185.614,77.1a108.726,108.726,0,0,1-35.274,23.637,108.447,108.447,0,0,1-83.218,0A108.726,108.726,0,0,1,31.847,77.1,109.074,109.074,0,0,1,8.277,41.726,109.29,109.29,0,0,1,0,0Z" transform="translate(734.705)"/><path class="b" d="M109.025,217.485A108.743,108.743,0,1,1,109.025,0Z" transform="translate(605.037 130.255)"/><path class="c" d="M217.461,0a109.294,109.294,0,0,1-8.277,41.727A109.065,109.065,0,0,1,185.614,77.1a108.717,108.717,0,0,1-35.274,23.636,108.447,108.447,0,0,1-83.218,0A108.717,108.717,0,0,1,31.847,77.1,109.066,109.066,0,0,1,8.277,41.727,109.294,109.294,0,0,1,0,0Z" transform="translate(626.402 349.781)"/><path class="d" d="M109.025,109.037H0V0A109,109,0,0,1,41.722,8.3a109.04,109.04,0,0,1,35.37,23.637,109.054,109.054,0,0,1,23.634,35.374A109.034,109.034,0,0,1,109.025,109.037Z" transform="translate(734.478 130.255)"/><path class="d" d="M109.025,0V109.037H0A109.028,109.028,0,0,1,109.025,0Z" transform="translate(1101.717)"/><path class="c" d="M0,0H109.025V109.037a109,109,0,0,1-41.722-8.3A109.04,109.04,0,0,1,31.933,77.1,109.054,109.054,0,0,1,8.3,41.726,109.034,109.034,0,0,1,0,0Z" transform="translate(842.834 246.74)"/><path class="e" d="M0,0H109.025V109.037a109.012,109.012,0,0,1-41.722-8.3A109.029,109.029,0,0,1,31.933,77.1,109.045,109.045,0,0,1,8.3,41.727,109.037,109.037,0,0,1,0,0Z" transform="translate(1101.717 452.265)"/><path class="e" d="M54.513,0a54.516,54.516,0,0,1,54.513,54.519v54.519H0V54.519A54.516,54.516,0,0,1,54.513,0Z" transform="translate(605.037 452.265)"/><path class="g" d="M109.025,54.519a54.516,54.516,0,0,1-54.513,54.519H0V0H54.513A54.516,54.516,0,0,1,109.025,54.519Z" transform="translate(258.883)"/><path class="g" d="M0,54.519A54.516,54.516,0,0,1,54.513,0h54.513V109.037H54.513A54.516,54.516,0,0,1,0,54.519Z" transform="translate(972.276)"/><path class="b" d="M0,54.519A54.516,54.516,0,0,1,54.513,0h54.513V109.037H54.513A54.516,54.516,0,0,1,0,54.519Z" transform="translate(1101.717 130.255)"/><path class="d" d="M43.315,0A43.32,43.32,0,1,1,0,43.32,43.318,43.318,0,0,1,43.315,0Z" transform="translate(388.36)"/><path class="b" d="M43.315,0A43.32,43.32,0,1,1,0,43.32,43.318,43.318,0,0,1,43.315,0Z" transform="translate(735.131 247.587)"/><path class="f" d="M43.315,0A43.32,43.32,0,1,1,0,43.32,43.318,43.318,0,0,1,43.315,0Z" transform="translate(1124.077 350.748)"/><path class="f" d="M54.218,109.037A54.071,54.071,0,0,1,15.879,93.069,54.6,54.6,0,0,1,33.47,4.15,53.955,53.955,0,0,1,54.218,0Z" transform="translate(638.563 944.322)"/><path class="d" d="M0,0A53.957,53.957,0,0,1,20.748,4.15a54.2,54.2,0,0,1,17.59,11.818A54.541,54.541,0,0,1,50.091,33.655a54.781,54.781,0,0,1,4.127,20.863,54.781,54.781,0,0,1-4.127,20.863A54.54,54.54,0,0,1,38.338,93.069a54.2,54.2,0,0,1-17.59,11.818A53.959,53.959,0,0,1,0,109.037Z" transform="translate(0 1030.963)"/><path class="f" d="M217.461,0a109.29,109.29,0,0,1-8.277,41.726A109.074,109.074,0,0,1,185.614,77.1a108.726,108.726,0,0,1-35.274,23.637,108.447,108.447,0,0,1-83.218,0A108.726,108.726,0,0,1,31.847,77.1,109.074,109.074,0,0,1,8.277,41.726,109.29,109.29,0,0,1,0,0Z" transform="translate(713.044 829.894)"/><path class="c" d="M0,109.037A108.693,108.693,0,0,1,209.185,67.311a109.29,109.29,0,0,1,8.277,41.726Z" transform="translate(605.327 701.79)"/><path class="d" d="M109.025,0V109.037H0A109.028,109.028,0,0,1,109.025,0Z" transform="translate(842.834 578.698)"/><path class="c" d="M0,0H109.025V109.037a109.012,109.012,0,0,1-41.722-8.3A109.029,109.029,0,0,1,31.933,77.1,109.045,109.045,0,0,1,8.3,41.727,109.037,109.037,0,0,1,0,0Z" transform="translate(842.834 1030.963)"/><path class="g" d="M54.513,0a54.516,54.516,0,0,1,54.513,54.519v54.519H0V54.519A54.516,54.516,0,0,1,54.513,0Z" transform="translate(346.154 1030.963)"/><path class="f" d="M0,54.519A54.516,54.516,0,0,1,54.513,0h54.513V109.037H54.513A54.516,54.516,0,0,1,0,54.519Z" transform="translate(713.392 578.698)"/><path class="e" d="M0,54.519A54.516,54.516,0,0,1,54.513,0h54.513V109.037H54.513A54.516,54.516,0,0,1,0,54.519Z" transform="translate(842.834 701.79)"/><path class="e" d="M43.315,0A43.32,43.32,0,1,1,0,43.32,43.318,43.318,0,0,1,43.315,0Z" transform="translate(237.819 1053.359)"/><path class="d" d="M43.315,0A43.32,43.32,0,1,1,0,43.32,43.318,43.318,0,0,1,43.315,0Z" transform="translate(865.171 923.104)"/><path class="d" d="M0,0A53.955,53.955,0,0,1,20.748,4.15a54.222,54.222,0,0,1,17.59,11.818A54.543,54.543,0,0,1,50.091,33.655a54.8,54.8,0,0,1,4.127,20.863,54.8,54.8,0,0,1-4.127,20.863A54.543,54.543,0,0,1,38.339,93.069a54.222,54.222,0,0,1-17.59,11.818A53.955,53.955,0,0,1,0,109.037Z" transform="translate(1233.773 660.574)"/><path class="d" d="M0,0A53.972,53.972,0,0,1,20.748,4.15a54.22,54.22,0,0,1,17.59,11.817A54.561,54.561,0,0,1,50.091,33.655a54.8,54.8,0,0,1,4.127,20.863,54.8,54.8,0,0,1-4.127,20.863A54.561,54.561,0,0,1,38.339,93.07a54.22,54.22,0,0,1-17.59,11.817A53.972,53.972,0,0,1,0,109.037Z" transform="translate(1471.885 1030.963)"/><path class="b" d="M217.461,0a109.294,109.294,0,0,1-8.277,41.727A109.065,109.065,0,0,1,185.614,77.1a108.717,108.717,0,0,1-35.274,23.636,108.447,108.447,0,0,1-83.218,0A108.717,108.717,0,0,1,31.847,77.1,109.066,109.066,0,0,1,8.277,41.727,109.294,109.294,0,0,1,0,0Z" transform="translate(1232.029 578.698)"/><path class="b" d="M0,109.037A108.693,108.693,0,0,1,209.185,67.311a109.29,109.29,0,0,1,8.277,41.726Z" transform="translate(995.803 780.323)"/><path class="g" d="M109.025,217.485A108.743,108.743,0,1,1,109.025,0Z" transform="translate(1104.06 574.981)"/><path class="c" d="M217.461,0a109.29,109.29,0,0,1-8.277,41.726A109.074,109.074,0,0,1,185.614,77.1a108.726,108.726,0,0,1-35.274,23.637,108.447,108.447,0,0,1-83.218,0A108.726,108.726,0,0,1,31.847,77.1,109.074,109.074,0,0,1,8.277,41.726,109.29,109.29,0,0,1,0,0Z" transform="translate(1103.521 900.707)"/><path class="f" d="M0,109.037A108.693,108.693,0,0,1,209.185,67.311a109.29,109.29,0,0,1,8.277,41.726Z" transform="translate(1232.029 1030.963)"/><path class="g" d="M0,0A109.257,109.257,0,0,1,41.722,8.277a109.06,109.06,0,0,1,35.37,23.573,108.74,108.74,0,0,1,23.634,35.278,108.481,108.481,0,0,1,0,83.227,108.74,108.74,0,0,1-23.634,35.278,109.06,109.06,0,0,1-35.37,23.573A109.257,109.257,0,0,1,0,217.485Z" transform="translate(1471.885 792.259)"/><path class="c" d="M0,109.037A108.693,108.693,0,0,1,209.185,67.31a109.294,109.294,0,0,1,8.277,41.727Z" transform="translate(1341.054 681.182)"/><path class="g" d="M0,0H109.025V109.037a109,109,0,0,1-41.722-8.3A109.04,109.04,0,0,1,31.933,77.1,109.054,109.054,0,0,1,8.3,41.726,109.034,109.034,0,0,1,0,0Z" transform="translate(1341.644 900.707)"/><path class="c" d="M0,109.037V0H109.025a109.034,109.034,0,0,1-8.3,41.726A109.054,109.054,0,0,1,77.092,77.1a109.04,109.04,0,0,1-35.37,23.637A109,109,0,0,1,0,109.037Z" transform="translate(974.618 1030.963)"/><path class="c" d="M109.025,109.037H0V0A109,109,0,0,1,41.722,8.3a109.04,109.04,0,0,1,35.37,23.637,109.054,109.054,0,0,1,23.634,35.374A109.034,109.034,0,0,1,109.025,109.037Z" transform="translate(1233.501 784.222)"/><path class="e" d="M109.025,109.037H0V0A109.011,109.011,0,0,1,41.722,8.3a109.029,109.029,0,0,1,35.37,23.636A109.045,109.045,0,0,1,100.726,67.31,109.037,109.037,0,0,1,109.025,109.037Z" transform="translate(974.618 578.698)"/><path class="g" d="M54.513,109.037A54.516,54.516,0,0,1,0,54.519V0H109.025V54.519A54.516,54.516,0,0,1,54.513,109.037Z" transform="translate(1471.885 578.698)"/><path class="e" d="M109.025,54.519a54.516,54.516,0,0,1-54.513,54.519H0V0H54.513A54.516,54.516,0,0,1,109.025,54.519Z" transform="translate(1104.06 1030.963)"/><path class="g" d="M109.025,54.519a54.516,54.516,0,0,1-54.513,54.519H0V0H54.513A54.516,54.516,0,0,1,109.025,54.519Z" transform="translate(974.618 900.707)"/><path class="f" d="M43.315,86.64A43.32,43.32,0,1,1,86.631,43.32,43.318,43.318,0,0,1,43.315,86.64Z" transform="translate(1363.449 805.773)"/><path class="f" d="M43.315,86.64A43.32,43.32,0,1,1,86.631,43.32,43.318,43.318,0,0,1,43.315,86.64Z" transform="translate(974.708 702.611)"/></g></g></svg>